<svg width="62" height="23" viewBox="0 0 62 23" fill="none" xmlns="http://www.w3.org/2000/svg">
<path d="M5.675 2.7C6.15833 2.73333 6.69167 2.79167 7.275 2.875C7.85833 2.95833 8.23333 3.00833 8.4 3.025L8.35 4.85C7.11667 4.61667 6.025 4.5 5.075 4.5C4.00833 4.5 3.25 4.675 2.8 5.025C2.35 5.375 2.125 5.91667 2.125 6.65V7.15C2.125 7.58333 2.16667 7.91667 2.25 8.15C2.35 8.38333 2.525 8.59167 2.775 8.775C3.04167 8.94167 3.45833 9.10833 4.025 9.275L5.6 9.75C6.56667 10.0333 7.30833 10.35 7.825 10.7C8.35833 11.0333 8.73333 11.4583 8.95 11.975C9.16667 12.4917 9.275 13.1667 9.275 14V14.125C9.275 15.2917 8.99167 16.2167 8.425 16.9C7.875 17.5667 6.95833 17.9917 5.675 18.175V20.35H3.8V18.3C3.31667 18.2833 2.79167 18.2333 2.225 18.15C1.675 18.0667 1.14167 17.975 0.625 17.875L0.675 16.05C1.94167 16.3333 3.03333 16.475 3.95 16.475C5.11667 16.475 5.94167 16.3 6.425 15.95C6.90833 15.6 7.15 15.0583 7.15 14.325V13.825C7.15 13.4417 7.09167 13.1417 6.975 12.925C6.875 12.6917 6.66667 12.4917 6.35 12.325C6.05 12.1417 5.59167 11.9583 4.975 11.775L3.425 11.3C2.50833 11.0167 1.80833 10.7167 1.325 10.4C0.841667 10.0667 0.5 9.64167 0.3 9.125C0.1 8.59167 7.07805e-08 7.875 7.07805e-08 6.975V6.85C7.07805e-08 5.61667 0.3 4.66667 0.9 4C1.5 3.31667 2.46667 2.9 3.8 2.75V0.624999H5.675V2.7ZM20.4523 2.975V18H18.3273V5.025H18.2773L14.9523 6.45L14.5273 4.625L18.5773 2.975H20.4523ZM25.0654 15.25C25.5154 15.25 25.8571 15.35 26.0904 15.55C26.3238 15.7333 26.4404 16.0083 26.4404 16.375V17.175C26.4404 17.6583 26.3821 18.0833 26.2654 18.45L25.1904 22.025H23.6904L24.5904 18.2C24.0071 18.0667 23.7154 17.7083 23.7154 17.125V16.375C23.7154 16.0083 23.8321 15.7333 24.0654 15.55C24.2988 15.35 24.6321 15.25 25.0654 15.25ZM32.5846 2.675C34.2012 2.675 35.3929 3 36.1596 3.65C36.9262 4.3 37.3096 5.275 37.3096 6.575V7.125C37.3096 7.90833 37.1762 8.63333 36.9096 9.3C36.6429 9.96667 36.0846 10.8 35.2346 11.8L31.6096 16.175H37.4846V18H29.0596V16.375L34.0596 10.05C34.5262 9.46667 34.8262 8.99167 34.9596 8.625C35.1096 8.24167 35.1846 7.75 35.1846 7.15V6.7C35.1846 5.9 34.9762 5.33333 34.5596 5C34.1596 4.65 33.5012 4.475 32.5846 4.475C32.1346 4.475 31.6179 4.53333 31.0346 4.65C30.4512 4.75 29.9179 4.875 29.4346 5.025V3.2C30.7179 2.85 31.7679 2.675 32.5846 2.675ZM44.7275 2.675C46.2275 2.675 47.3692 3.10833 48.1525 3.975C48.9525 4.825 49.3525 6.1 49.3525 7.8V13.175C49.3525 14.875 48.9525 16.1583 48.1525 17.025C47.3692 17.875 46.2275 18.3 44.7275 18.3C43.2275 18.3 42.0775 17.875 41.2775 17.025C40.4942 16.1583 40.1025 14.875 40.1025 13.175V7.8C40.1025 6.1 40.4942 4.825 41.2775 3.975C42.0775 3.10833 43.2275 2.675 44.7275 2.675ZM44.7275 4.475C43.0609 4.475 42.2275 5.51667 42.2275 7.6V13.375C42.2275 15.4583 43.0609 16.5 44.7275 16.5C46.3942 16.5 47.2275 15.4583 47.2275 13.375V7.6C47.2275 5.51667 46.3942 4.475 44.7275 4.475ZM57.2275 2.675C58.7275 2.675 59.8692 3.10833 60.6525 3.975C61.4525 4.825 61.8525 6.1 61.8525 7.8V13.175C61.8525 14.875 61.4525 16.1583 60.6525 17.025C59.8692 17.875 58.7275 18.3 57.2275 18.3C55.7275 18.3 54.5775 17.875 53.7775 17.025C52.9942 16.1583 52.6025 14.875 52.6025 13.175V7.8C52.6025 6.1 52.9942 4.825 53.7775 3.975C54.5775 3.10833 55.7275 2.675 57.2275 2.675ZM57.2275 4.475C55.5609 4.475 54.7275 5.51667 54.7275 7.6V13.375C54.7275 15.4583 55.5609 16.5 57.2275 16.5C58.8942 16.5 59.7275 15.4583 59.7275 13.375V7.6C59.7275 5.51667 58.8942 4.475 57.2275 4.475Z" fill="#888888"/>
</svg>
