<svg width="66" height="23" viewBox="0 0 66 23" fill="none" xmlns="http://www.w3.org/2000/svg">
<path d="M5.675 2.7C6.15833 2.73333 6.69167 2.79167 7.275 2.875C7.85833 2.95833 8.23333 3.00833 8.4 3.025L8.35 4.85C7.11667 4.61667 6.025 4.5 5.075 4.5C4.00833 4.5 3.25 4.675 2.8 5.025C2.35 5.375 2.125 5.91667 2.125 6.65V7.15C2.125 7.58333 2.16667 7.91667 2.25 8.15C2.35 8.38333 2.525 8.59167 2.775 8.775C3.04167 8.94167 3.45833 9.10833 4.025 9.275L5.6 9.75C6.56667 10.0333 7.30833 10.35 7.825 10.7C8.35833 11.0333 8.73333 11.4583 8.95 11.975C9.16667 12.4917 9.275 13.1667 9.275 14V14.125C9.275 15.2917 8.99167 16.2167 8.425 16.9C7.875 17.5667 6.95833 17.9917 5.675 18.175V20.35H3.8V18.3C3.31667 18.2833 2.79167 18.2333 2.225 18.15C1.675 18.0667 1.14167 17.975 0.625 17.875L0.675 16.05C1.94167 16.3333 3.03333 16.475 3.95 16.475C5.11667 16.475 5.94167 16.3 6.425 15.95C6.90833 15.6 7.15 15.0583 7.15 14.325V13.825C7.15 13.4417 7.09167 13.1417 6.975 12.925C6.875 12.6917 6.66667 12.4917 6.35 12.325C6.05 12.1417 5.59167 11.9583 4.975 11.775L3.425 11.3C2.50833 11.0167 1.80833 10.7167 1.325 10.4C0.841667 10.0667 0.5 9.64167 0.3 9.125C0.1 8.59167 7.07805e-08 7.875 7.07805e-08 6.975V6.85C7.07805e-08 5.61667 0.3 4.66667 0.9 4C1.5 3.31667 2.46667 2.9 3.8 2.75V0.624999H5.675V2.7ZM18.3023 2.675C19.919 2.675 21.1107 3 21.8773 3.65C22.644 4.3 23.0273 5.275 23.0273 6.575V7.125C23.0273 7.90833 22.894 8.63333 22.6273 9.3C22.3607 9.96667 21.8023 10.8 20.9523 11.8L17.3273 16.175H23.2023V18H14.7773V16.375L19.7773 10.05C20.244 9.46667 20.544 8.99167 20.6773 8.625C20.8273 8.24167 20.9023 7.75 20.9023 7.15V6.7C20.9023 5.9 20.694 5.33333 20.2773 5C19.8773 4.65 19.219 4.475 18.3023 4.475C17.8523 4.475 17.3357 4.53333 16.7523 4.65C16.169 4.75 15.6357 4.875 15.1523 5.025V3.2C16.4357 2.85 17.4857 2.675 18.3023 2.675ZM27.0674 15.25C27.5174 15.25 27.859 15.35 28.0924 15.55C28.3257 15.7333 28.4424 16.0083 28.4424 16.375V17.175C28.4424 17.6583 28.384 18.0833 28.2674 18.45L27.1924 22.025H25.6924L26.5924 18.2C26.009 18.0667 25.7174 17.7083 25.7174 17.125V16.375C25.7174 16.0083 25.834 15.7333 26.0674 15.55C26.3007 15.35 26.634 15.25 27.0674 15.25ZM35.5723 2.675C37.0723 2.675 38.2139 3.10833 38.9973 3.975C39.7973 4.825 40.1973 6.1 40.1973 7.8V13.175C40.1973 14.875 39.7973 16.1583 38.9973 17.025C38.2139 17.875 37.0723 18.3 35.5723 18.3C34.0723 18.3 32.9223 17.875 32.1223 17.025C31.3389 16.1583 30.9473 14.875 30.9473 13.175V7.8C30.9473 6.1 31.3389 4.825 32.1223 3.975C32.9223 3.10833 34.0723 2.675 35.5723 2.675ZM35.5723 4.475C33.9056 4.475 33.0723 5.51667 33.0723 7.6V13.375C33.0723 15.4583 33.9056 16.5 35.5723 16.5C37.2389 16.5 38.0723 15.4583 38.0723 13.375V7.6C38.0723 5.51667 37.2389 4.475 35.5723 4.475ZM48.0723 2.675C49.5723 2.675 50.7139 3.10833 51.4973 3.975C52.2973 4.825 52.6973 6.1 52.6973 7.8V13.175C52.6973 14.875 52.2973 16.1583 51.4973 17.025C50.7139 17.875 49.5723 18.3 48.0723 18.3C46.5723 18.3 45.4223 17.875 44.6223 17.025C43.8389 16.1583 43.4473 14.875 43.4473 13.175V7.8C43.4473 6.1 43.8389 4.825 44.6223 3.975C45.4223 3.10833 46.5723 2.675 48.0723 2.675ZM48.0723 4.475C46.4056 4.475 45.5723 5.51667 45.5723 7.6V13.375C45.5723 15.4583 46.4056 16.5 48.0723 16.5C49.7389 16.5 50.5723 15.4583 50.5723 13.375V7.6C50.5723 5.51667 49.7389 4.475 48.0723 4.475ZM60.5723 2.675C62.0723 2.675 63.2139 3.10833 63.9973 3.975C64.7973 4.825 65.1973 6.1 65.1973 7.8V13.175C65.1973 14.875 64.7973 16.1583 63.9973 17.025C63.2139 17.875 62.0723 18.3 60.5723 18.3C59.0723 18.3 57.9223 17.875 57.1223 17.025C56.3389 16.1583 55.9473 14.875 55.9473 13.175V7.8C55.9473 6.1 56.3389 4.825 57.1223 3.975C57.9223 3.10833 59.0723 2.675 60.5723 2.675ZM60.5723 4.475C58.9056 4.475 58.0723 5.51667 58.0723 7.6V13.375C58.0723 15.4583 58.9056 16.5 60.5723 16.5C62.2389 16.5 63.0723 15.4583 63.0723 13.375V7.6C63.0723 5.51667 62.2389 4.475 60.5723 4.475Z" fill="#888888"/>
</svg>
