<svg width="149" height="90" viewBox="0 0 149 90" fill="none" xmlns="http://www.w3.org/2000/svg">
<path d="M1.92 1.14V8.1H5.04V9H0.9V1.14H1.92ZM8.49506 0.995999C9.39106 0.995999 10.0511 1.22 10.4751 1.668C10.8991 2.116 11.1111 2.752 11.1111 3.576V6.564C11.1111 7.388 10.8991 8.024 10.4751 8.472C10.0511 8.92 9.39106 9.144 8.49506 9.144C7.59906 9.144 6.93906 8.92 6.51506 8.472C6.09106 8.024 5.87906 7.388 5.87906 6.564V3.576C5.87906 2.752 6.09106 2.116 6.51506 1.668C6.93906 1.22 7.59906 0.995999 8.49506 0.995999ZM8.49506 1.896C7.96706 1.896 7.56706 2.028 7.29506 2.292C7.03106 2.556 6.89906 2.944 6.89906 3.456V6.672C6.89906 7.184 7.03106 7.576 7.29506 7.848C7.56706 8.112 7.96706 8.244 8.49506 8.244C9.02306 8.244 9.41906 8.112 9.68306 7.848C9.95506 7.576 10.0911 7.184 10.0911 6.672V3.468C10.0911 2.956 9.95506 2.568 9.68306 2.304C9.41906 2.032 9.02306 1.896 8.49506 1.896ZM17.9333 1.14L15.5693 9H14.2253L11.9333 1.14H13.0133L14.8973 8.016L16.8533 1.14H17.9333ZM24.0338 1.14V2.064H21.7538V9H20.7338V2.064H18.4538V1.14H24.0338ZM29.9747 5.064V5.844H27.3347V5.064H29.9747ZM38.6423 1.14L36.3623 6.3V9H35.3423V6.3L33.0623 1.14H34.2263L35.8583 5.22L37.5023 1.14H38.6423ZM40.8711 3C41.5831 3 42.1111 3.192 42.4551 3.576C42.8071 3.952 42.9831 4.488 42.9831 5.184V6.96C42.9831 7.656 42.8071 8.196 42.4551 8.58C42.1111 8.956 41.5831 9.144 40.8711 9.144C40.1591 9.144 39.6271 8.956 39.2751 8.58C38.9311 8.196 38.7591 7.656 38.7591 6.96V5.184C38.7591 4.488 38.9311 3.952 39.2751 3.576C39.6271 3.192 40.1591 3 40.8711 3ZM40.8711 3.852C40.5271 3.852 40.2591 3.96 40.0671 4.176C39.8751 4.392 39.7791 4.7 39.7791 5.1V7.044C39.7791 7.444 39.8751 7.752 40.0671 7.968C40.2591 8.184 40.5271 8.292 40.8711 8.292C41.2151 8.292 41.4831 8.184 41.6751 7.968C41.8671 7.752 41.9631 7.444 41.9631 7.044V5.088C41.9631 4.688 41.8671 4.384 41.6751 4.176C41.4831 3.96 41.2151 3.852 40.8711 3.852ZM48.6192 9H47.6592V8.16C47.4432 8.48 47.2032 8.724 46.9392 8.892C46.6752 9.06 46.3952 9.144 46.0992 9.144C45.6112 9.144 45.2272 8.976 44.9472 8.64C44.6752 8.296 44.5392 7.796 44.5392 7.14V3.144H45.5592V6.96C45.5592 7.384 45.6232 7.696 45.7512 7.896C45.8872 8.096 46.0712 8.196 46.3032 8.196C46.5192 8.196 46.7432 8.112 46.9752 7.944C47.2152 7.768 47.4232 7.528 47.5992 7.224V3.144H48.6192V9ZM53.4811 0.804V9H52.4611V0.804H53.4811ZM57.1484 3C57.8604 3 58.3884 3.192 58.7324 3.576C59.0844 3.952 59.2604 4.488 59.2604 5.184V6.96C59.2604 7.656 59.0844 8.196 58.7324 8.58C58.3884 8.956 57.8604 9.144 57.1484 9.144C56.4364 9.144 55.9044 8.956 55.5524 8.58C55.2084 8.196 55.0364 7.656 55.0364 6.96V5.184C55.0364 4.488 55.2084 3.952 55.5524 3.576C55.9044 3.192 56.4364 3 57.1484 3ZM57.1484 3.852C56.8044 3.852 56.5364 3.96 56.3444 4.176C56.1524 4.392 56.0564 4.7 56.0564 5.1V7.044C56.0564 7.444 56.1524 7.752 56.3444 7.968C56.5364 8.184 56.8044 8.292 57.1484 8.292C57.4924 8.292 57.7604 8.184 57.9524 7.968C58.1444 7.752 58.2404 7.444 58.2404 7.044V5.088C58.2404 4.688 58.1444 4.384 57.9524 4.176C57.7604 3.96 57.4924 3.852 57.1484 3.852ZM65.0054 3.144L63.1934 9H61.8614L60.0614 3.144H61.1414L62.5334 8.256L63.9254 3.144H65.0054ZM67.8459 3C68.5179 3 69.0299 3.184 69.3819 3.552C69.7339 3.92 69.9099 4.452 69.9099 5.148V6.384H66.8259V7.092C66.8259 7.5 66.9219 7.796 67.1139 7.98C67.3139 8.156 67.6259 8.244 68.0499 8.244C68.4659 8.244 68.9859 8.18 69.6099 8.052L69.6339 8.94C68.8899 9.076 68.3579 9.144 68.0379 9.144C67.2459 9.144 66.6739 8.972 66.3219 8.628C65.9779 8.284 65.8059 7.752 65.8059 7.032V5.148C65.8059 4.452 65.9739 3.92 66.3099 3.552C66.6539 3.184 67.1659 3 67.8459 3ZM67.8459 3.852C67.5339 3.852 67.2859 3.952 67.1019 4.152C66.9179 4.344 66.8259 4.624 66.8259 4.992V5.568H68.8899V5.028C68.8899 4.644 68.7939 4.352 68.6019 4.152C68.4179 3.952 68.1659 3.852 67.8459 3.852ZM71.7731 7.68C71.9891 7.68 72.1531 7.728 72.2651 7.824C72.3771 7.912 72.4331 8.044 72.4331 8.22V8.604C72.4331 8.836 72.4051 9.04 72.3491 9.216L71.8331 10.932H71.1131L71.5451 9.096C71.2651 9.032 71.1251 8.86 71.1251 8.58V8.22C71.1251 8.044 71.1811 7.912 71.2931 7.824C71.4051 7.728 71.5651 7.68 71.7731 7.68ZM80.3581 3.144L77.6701 11.22H76.6501L77.4181 9H77.0341L75.3661 3.144H76.4821L77.7421 8.268L79.3021 3.144H80.3581ZM83.2695 3C83.9815 3 84.5095 3.192 84.8535 3.576C85.2055 3.952 85.3815 4.488 85.3815 5.184V6.96C85.3815 7.656 85.2055 8.196 84.8535 8.58C84.5095 8.956 83.9815 9.144 83.2695 9.144C82.5575 9.144 82.0255 8.956 81.6735 8.58C81.3295 8.196 81.1575 7.656 81.1575 6.96V5.184C81.1575 4.488 81.3295 3.952 81.6735 3.576C82.0255 3.192 82.5575 3 83.2695 3ZM83.2695 3.852C82.9255 3.852 82.6575 3.96 82.4655 4.176C82.2735 4.392 82.1775 4.7 82.1775 5.1V7.044C82.1775 7.444 82.2735 7.752 82.4655 7.968C82.6575 8.184 82.9255 8.292 83.2695 8.292C83.6135 8.292 83.8815 8.184 84.0735 7.968C84.2655 7.752 84.3615 7.444 84.3615 7.044V5.088C84.3615 4.688 84.2655 4.384 84.0735 4.176C83.8815 3.96 83.6135 3.852 83.2695 3.852ZM91.0177 9H90.0577V8.16C89.8417 8.48 89.6017 8.724 89.3377 8.892C89.0737 9.06 88.7937 9.144 88.4977 9.144C88.0097 9.144 87.6257 8.976 87.3457 8.64C87.0737 8.296 86.9377 7.796 86.9377 7.14V3.144H87.9577V6.96C87.9577 7.384 88.0217 7.696 88.1497 7.896C88.2857 8.096 88.4697 8.196 88.7017 8.196C88.9177 8.196 89.1417 8.112 89.3737 7.944C89.6137 7.768 89.8217 7.528 89.9977 7.224V3.144H91.0177V9ZM95.2593 3C95.3713 3 95.4593 3.008 95.5233 3.024V4.176C95.4033 4.152 95.2473 4.14 95.0553 4.14C94.4953 4.14 94.0513 4.42 93.7233 4.98V9H92.7033V3.144H93.6633V4.02C93.8793 3.692 94.1193 3.44 94.3833 3.264C94.6553 3.088 94.9473 3 95.2593 3ZM99.7819 0.804V9H98.7619V0.804H99.7819ZM103.449 3C104.161 3 104.689 3.192 105.033 3.576C105.385 3.952 105.561 4.488 105.561 5.184V6.96C105.561 7.656 105.385 8.196 105.033 8.58C104.689 8.956 104.161 9.144 103.449 9.144C102.737 9.144 102.205 8.956 101.853 8.58C101.509 8.196 101.337 7.656 101.337 6.96V5.184C101.337 4.488 101.509 3.952 101.853 3.576C102.205 3.192 102.737 3 103.449 3ZM103.449 3.852C103.105 3.852 102.837 3.96 102.645 4.176C102.453 4.392 102.357 4.7 102.357 5.1V7.044C102.357 7.444 102.453 7.752 102.645 7.968C102.837 8.184 103.105 8.292 103.449 8.292C103.793 8.292 104.061 8.184 104.253 7.968C104.445 7.752 104.541 7.444 104.541 7.044V5.088C104.541 4.688 104.445 4.384 104.253 4.176C104.061 3.96 103.793 3.852 103.449 3.852ZM109.277 0.659999C109.541 0.659999 109.793 0.687999 110.033 0.744V1.56C109.793 1.52 109.545 1.5 109.289 1.5C109.041 1.5 108.845 1.58 108.701 1.74C108.565 1.9 108.497 2.144 108.497 2.472V3.144H109.697V3.984H108.497V9H107.477V3.984H106.637V3.144H107.477V2.532C107.485 1.908 107.641 1.44 107.945 1.128C108.249 0.816 108.693 0.659999 109.277 0.659999ZM112.067 3.144H113.627V3.984H112.067V7.416C112.067 7.72 112.127 7.94 112.247 8.076C112.375 8.204 112.571 8.268 112.835 8.268C113.171 8.268 113.499 8.228 113.819 8.148L113.843 9C113.491 9.096 113.171 9.144 112.883 9.144C112.243 9.144 111.775 9.004 111.479 8.724C111.191 8.436 111.047 7.972 111.047 7.332V3.984H110.207V3.144H111.047L111.239 1.584H112.067V3.144ZM115.918 0.659999L115.834 6.6H114.862L114.778 0.659999H115.918ZM115.342 7.704C115.558 7.704 115.722 7.752 115.834 7.848C115.954 7.944 116.014 8.08 116.014 8.256V8.604C116.014 8.78 115.954 8.912 115.834 9C115.722 9.096 115.558 9.144 115.342 9.144C115.134 9.144 114.97 9.096 114.85 9C114.738 8.912 114.682 8.78 114.682 8.604V8.256C114.682 8.08 114.738 7.944 114.85 7.848C114.97 7.752 115.134 7.704 115.342 7.704ZM3.012 26.996C3.852 26.996 4.492 27.168 4.932 27.512C5.372 27.856 5.592 28.324 5.592 28.916V29.18C5.592 30.02 5.224 30.6 4.488 30.92C4.936 31.016 5.284 31.224 5.532 31.544C5.788 31.856 5.916 32.244 5.916 32.708V32.972C5.916 33.636 5.68 34.164 5.208 34.556C4.744 34.948 4.04 35.144 3.096 35.144C2.56 35.144 1.828 35.12 0.9 35.072V27.044C1.636 27.012 2.34 26.996 3.012 26.996ZM2.856 27.872C2.568 27.872 2.256 27.884 1.92 27.908V30.596H3.096C3.576 30.596 3.94 30.48 4.188 30.248C4.444 30.016 4.572 29.692 4.572 29.276V29.072C4.572 28.672 4.436 28.372 4.164 28.172C3.892 27.972 3.456 27.872 2.856 27.872ZM1.92 31.424V34.184C2.184 34.208 2.4 34.228 2.568 34.244C2.744 34.252 2.92 34.256 3.096 34.256C3.712 34.256 4.164 34.14 4.452 33.908C4.748 33.668 4.896 33.336 4.896 32.912V32.66C4.896 31.836 4.32 31.424 3.168 31.424H1.92ZM9.73584 29C9.84784 29 9.93584 29.008 9.99984 29.024V30.176C9.87984 30.152 9.72384 30.14 9.53184 30.14C8.97184 30.14 8.52784 30.42 8.19984 30.98V35H7.17984V29.144H8.13984V30.02C8.35584 29.692 8.59584 29.44 8.85984 29.264C9.13184 29.088 9.42384 29 9.73584 29ZM12.9922 29C13.7042 29 14.2322 29.192 14.5762 29.576C14.9282 29.952 15.1042 30.488 15.1042 31.184V32.96C15.1042 33.656 14.9282 34.196 14.5762 34.58C14.2322 34.956 13.7042 35.144 12.9922 35.144C12.2802 35.144 11.7482 34.956 11.3962 34.58C11.0522 34.196 10.8802 33.656 10.8802 32.96V31.184C10.8802 30.488 11.0522 29.952 11.3962 29.576C11.7482 29.192 12.2802 29 12.9922 29ZM12.9922 29.852C12.6482 29.852 12.3802 29.96 12.1882 30.176C11.9962 30.392 11.9002 30.7 11.9002 31.1V33.044C11.9002 33.444 11.9962 33.752 12.1882 33.968C12.3802 34.184 12.6482 34.292 12.9922 34.292C13.3362 34.292 13.6042 34.184 13.7962 33.968C13.9882 33.752 14.0842 33.444 14.0842 33.044V31.088C14.0842 30.688 13.9882 30.384 13.7962 30.176C13.6042 29.96 13.3362 29.852 12.9922 29.852ZM18.4132 29C19.1012 29 19.6012 29.156 19.9132 29.468C20.2332 29.772 20.3932 30.26 20.3932 30.932V35H19.4212V34.064C18.9572 34.784 18.4332 35.144 17.8492 35.144C17.3852 35.144 17.0132 34.984 16.7332 34.664C16.4612 34.344 16.3252 33.908 16.3252 33.356V33.02C16.3252 32.54 16.4892 32.144 16.8172 31.832C17.1452 31.512 17.5852 31.352 18.1372 31.352C18.4412 31.352 18.8532 31.404 19.3732 31.508V30.848C19.3732 30.504 19.2932 30.256 19.1332 30.104C18.9812 29.952 18.7412 29.876 18.4132 29.876C18.0292 29.876 17.4892 29.936 16.7932 30.056V29.18C17.5452 29.06 18.0852 29 18.4132 29ZM18.3892 32.144C18.0532 32.144 17.7972 32.232 17.6212 32.408C17.4452 32.584 17.3572 32.832 17.3572 33.152V33.284C17.3572 33.58 17.4252 33.812 17.5612 33.98C17.6972 34.148 17.8692 34.232 18.0772 34.232C18.2932 34.232 18.5132 34.14 18.7372 33.956C18.9692 33.764 19.1812 33.496 19.3732 33.152V32.228C19.0692 32.172 18.7412 32.144 18.3892 32.144ZM26.0478 35H25.0758V34.052C24.5958 34.78 24.0478 35.144 23.4318 35.144C22.9358 35.144 22.5558 34.976 22.2918 34.64C22.0278 34.296 21.8958 33.796 21.8958 33.14V31.004C21.8958 30.372 22.0398 29.88 22.3278 29.528C22.6238 29.176 23.0438 29 23.5878 29C23.8198 29 24.0638 29.06 24.3198 29.18C24.5758 29.292 24.8118 29.432 25.0278 29.6V26.804H26.0478V35ZM23.8158 29.912C23.5278 29.912 23.3038 30.016 23.1438 30.224C22.9918 30.424 22.9158 30.732 22.9158 31.148V33.008C22.9158 33.824 23.1678 34.232 23.6718 34.232C23.9118 34.232 24.1478 34.14 24.3798 33.956C24.6198 33.764 24.8358 33.496 25.0278 33.152V30.512C24.8598 30.336 24.6598 30.192 24.4278 30.08C24.2038 29.968 23.9998 29.912 23.8158 29.912ZM31.9071 26.996C32.3391 26.996 32.9031 27.06 33.5991 27.188L33.5751 28.088C32.9191 27.96 32.3631 27.896 31.9071 27.896C31.4431 27.896 31.1071 27.988 30.8991 28.172C30.6991 28.356 30.5991 28.636 30.5991 29.012V29.324C30.5991 29.524 30.6231 29.684 30.6711 29.804C30.7271 29.916 30.8231 30.016 30.9591 30.104C31.0951 30.184 31.2991 30.268 31.5711 30.356L32.6871 30.728C33.2231 30.912 33.5991 31.156 33.8151 31.46C34.0391 31.764 34.1511 32.208 34.1511 32.792V33.02C34.1511 33.732 33.9431 34.264 33.5271 34.616C33.1191 34.968 32.4471 35.144 31.5111 35.144C31.0551 35.144 30.4711 35.064 29.7591 34.904L29.7831 33.98C30.4471 34.14 31.0151 34.22 31.4871 34.22C32.0871 34.22 32.5111 34.132 32.7591 33.956C33.0071 33.772 33.1311 33.488 33.1311 33.104V32.708C33.1311 32.428 33.0671 32.216 32.9391 32.072C32.8191 31.92 32.6031 31.792 32.2911 31.688L31.0551 31.28C30.5031 31.096 30.1191 30.86 29.9031 30.572C29.6871 30.276 29.5791 29.832 29.5791 29.24V29.108C29.5791 28.412 29.7631 27.888 30.1311 27.536C30.5071 27.176 31.0991 26.996 31.9071 26.996ZM36.6103 29.144H38.1703V29.984H36.6103V33.416C36.6103 33.72 36.6703 33.94 36.7903 34.076C36.9183 34.204 37.1143 34.268 37.3783 34.268C37.7143 34.268 38.0423 34.228 38.3623 34.148L38.3863 35C38.0343 35.096 37.7143 35.144 37.4263 35.144C36.7863 35.144 36.3183 35.004 36.0223 34.724C35.7343 34.436 35.5903 33.972 35.5903 33.332V29.984H34.7503V29.144H35.5903L35.7823 27.584H36.6103V29.144ZM40.1208 33.68C40.3368 33.68 40.5008 33.728 40.6128 33.824C40.7248 33.912 40.7808 34.044 40.7808 34.22V34.604C40.7808 34.836 40.7528 35.04 40.6968 35.216L40.1808 36.932H39.4608L39.8928 35.096C39.6128 35.032 39.4728 34.86 39.4728 34.58V34.22C39.4728 34.044 39.5288 33.912 39.6408 33.824C39.7528 33.728 39.9128 33.68 40.1208 33.68ZM48.0938 35L45.5018 28.364V35H44.4938V27.14H46.1258L48.6698 33.776V27.14H49.6778V35H48.0938ZM53.3381 29C54.0101 29 54.5221 29.184 54.8741 29.552C55.2261 29.92 55.4021 30.452 55.4021 31.148V32.384H52.3181V33.092C52.3181 33.5 52.4141 33.796 52.6061 33.98C52.8061 34.156 53.1181 34.244 53.5421 34.244C53.9581 34.244 54.4781 34.18 55.1021 34.052L55.1261 34.94C54.3821 35.076 53.8501 35.144 53.5301 35.144C52.7381 35.144 52.1661 34.972 51.8141 34.628C51.4701 34.284 51.2981 33.752 51.2981 33.032V31.148C51.2981 30.452 51.4661 29.92 51.8021 29.552C52.1461 29.184 52.6581 29 53.3381 29ZM53.3381 29.852C53.0261 29.852 52.7781 29.952 52.5941 30.152C52.4101 30.344 52.3181 30.624 52.3181 30.992V31.568H54.3821V31.028C54.3821 30.644 54.2861 30.352 54.0941 30.152C53.9101 29.952 53.6581 29.852 53.3381 29.852ZM63.8999 29.144L62.5439 35H61.2599L60.0719 30.032L58.8719 35H57.5879L56.2439 29.144H57.3239L58.2719 34.1L59.4119 29.144H60.7319L61.8599 34.1L62.8199 29.144H63.8999ZM66.7061 29C67.3941 29 67.8941 29.156 68.2061 29.468C68.5261 29.772 68.6861 30.26 68.6861 30.932V35H67.7141V34.064C67.2501 34.784 66.7261 35.144 66.1421 35.144C65.6781 35.144 65.3061 34.984 65.0261 34.664C64.7541 34.344 64.6181 33.908 64.6181 33.356V33.02C64.6181 32.54 64.7821 32.144 65.1101 31.832C65.4381 31.512 65.8781 31.352 66.4301 31.352C66.7341 31.352 67.1461 31.404 67.6661 31.508V30.848C67.6661 30.504 67.5861 30.256 67.4261 30.104C67.2741 29.952 67.0341 29.876 66.7061 29.876C66.3221 29.876 65.7821 29.936 65.0861 30.056V29.18C65.8381 29.06 66.3781 29 66.7061 29ZM66.6821 32.144C66.3461 32.144 66.0901 32.232 65.9141 32.408C65.7381 32.584 65.6501 32.832 65.6501 33.152V33.284C65.6501 33.58 65.7181 33.812 65.8541 33.98C65.9901 34.148 66.1621 34.232 66.3701 34.232C66.5861 34.232 66.8061 34.14 67.0301 33.956C67.2621 33.764 67.4741 33.496 67.6661 33.152V32.228C67.3621 32.172 67.0341 32.144 66.6821 32.144ZM72.8648 29C72.9768 29 73.0648 29.008 73.1288 29.024V30.176C73.0088 30.152 72.8528 30.14 72.6608 30.14C72.1008 30.14 71.6568 30.42 71.3288 30.98V35H70.3088V29.144H71.2688V30.02C71.4848 29.692 71.7248 29.44 71.9888 29.264C72.2608 29.088 72.5528 29 72.8648 29ZM75.2311 26.804V31.712L77.1511 29.144H78.2911L76.2991 31.712L78.4351 35H77.2111L75.2311 31.856V35H74.2111V26.804H75.2311ZM79.8122 33.68C80.0282 33.68 80.1922 33.728 80.3042 33.824C80.4162 33.912 80.4722 34.044 80.4722 34.22V34.604C80.4722 34.836 80.4442 35.04 80.3882 35.216L79.8722 36.932H79.1522L79.5842 35.096C79.3042 35.032 79.1642 34.86 79.1642 34.58V34.22C79.1642 34.044 79.2202 33.912 79.3322 33.824C79.4442 33.728 79.6042 33.68 79.8122 33.68ZM87.7852 35L85.1932 28.364V35H84.1852V27.14H85.8172L88.3612 33.776V27.14H89.3692V35H87.7852ZM92.8135 33.332C92.8135 33.948 92.6655 34.404 92.3695 34.7C92.0815 34.996 91.6175 35.144 90.9775 35.144C90.8495 35.144 90.7015 35.132 90.5335 35.108C90.3735 35.092 90.2655 35.076 90.2095 35.06V34.208C90.4335 34.248 90.7055 34.268 91.0255 34.268C91.2815 34.268 91.4735 34.204 91.6015 34.076C91.7295 33.94 91.7935 33.72 91.7935 33.416V27.14H92.8135V33.332ZM98.8711 27.644C99.5911 27.644 100.139 27.852 100.515 28.268C100.899 28.676 101.091 29.288 101.091 30.104V32.684C101.091 33.5 100.899 34.116 100.515 34.532C100.139 34.94 99.5911 35.144 98.8711 35.144C98.1511 35.144 97.5991 34.94 97.2151 34.532C96.8391 34.116 96.6511 33.5 96.6511 32.684V30.104C96.6511 29.288 96.8391 28.676 97.2151 28.268C97.5991 27.852 98.1511 27.644 98.8711 27.644ZM98.8711 28.508C98.0711 28.508 97.6711 29.008 97.6711 30.008V32.78C97.6711 33.78 98.0711 34.28 98.8711 34.28C99.6711 34.28 100.071 33.78 100.071 32.78V30.008C100.071 29.008 99.6711 28.508 98.8711 28.508ZM106.263 27.8V28.496L103.575 35H102.483L105.171 28.712V28.688H101.931V27.8H106.263ZM109.731 27.788V35H108.711V28.772H108.687L107.091 29.456L106.887 28.58L108.831 27.788H109.731ZM113.625 27.644C114.345 27.644 114.893 27.852 115.269 28.268C115.653 28.676 115.845 29.288 115.845 30.104V32.684C115.845 33.5 115.653 34.116 115.269 34.532C114.893 34.94 114.345 35.144 113.625 35.144C112.905 35.144 112.353 34.94 111.969 34.532C111.593 34.116 111.405 33.5 111.405 32.684V30.104C111.405 29.288 111.593 28.676 111.969 28.268C112.353 27.852 112.905 27.644 113.625 27.644ZM113.625 28.508C112.825 28.508 112.425 29.008 112.425 30.008V32.78C112.425 33.78 112.825 34.28 113.625 34.28C114.425 34.28 114.825 33.78 114.825 32.78V30.008C114.825 29.008 114.425 28.508 113.625 28.508ZM118.437 27.644C119.213 27.644 119.785 27.8 120.153 28.112C120.521 28.424 120.705 28.892 120.705 29.516V29.78C120.705 30.156 120.641 30.504 120.513 30.824C120.385 31.144 120.117 31.544 119.709 32.024L117.969 34.124H120.789V35H116.745V34.22L119.145 31.184C119.369 30.904 119.513 30.676 119.577 30.5C119.649 30.316 119.685 30.08 119.685 29.792V29.576C119.685 29.192 119.585 28.92 119.385 28.76C119.193 28.592 118.877 28.508 118.437 28.508C118.221 28.508 117.973 28.536 117.693 28.592C117.413 28.64 117.157 28.7 116.925 28.772V27.896C117.541 27.728 118.045 27.644 118.437 27.644ZM126.842 31.064V31.844H124.202V31.064H126.842ZM135.785 32.516C135.785 33.364 135.569 34.016 135.137 34.472C134.705 34.92 134.069 35.144 133.229 35.144C132.397 35.144 131.761 34.924 131.321 34.484C130.889 34.044 130.673 33.396 130.673 32.54V27.14H131.693V32.672C131.693 33.184 131.825 33.576 132.089 33.848C132.361 34.112 132.741 34.244 133.229 34.244C133.725 34.244 134.105 34.112 134.369 33.848C134.633 33.576 134.765 33.184 134.765 32.672V27.14H135.785V32.516ZM139.556 26.996C139.988 26.996 140.552 27.06 141.248 27.188L141.224 28.088C140.568 27.96 140.012 27.896 139.556 27.896C139.092 27.896 138.756 27.988 138.548 28.172C138.348 28.356 138.248 28.636 138.248 29.012V29.324C138.248 29.524 138.272 29.684 138.32 29.804C138.376 29.916 138.472 30.016 138.608 30.104C138.744 30.184 138.948 30.268 139.22 30.356L140.336 30.728C140.872 30.912 141.248 31.156 141.464 31.46C141.688 31.764 141.8 32.208 141.8 32.792V33.02C141.8 33.732 141.592 34.264 141.176 34.616C140.768 34.968 140.096 35.144 139.16 35.144C138.704 35.144 138.12 35.064 137.408 34.904L137.432 33.98C138.096 34.14 138.664 34.22 139.136 34.22C139.736 34.22 140.16 34.132 140.408 33.956C140.656 33.772 140.78 33.488 140.78 33.104V32.708C140.78 32.428 140.716 32.216 140.588 32.072C140.468 31.92 140.252 31.792 139.94 31.688L138.704 31.28C138.152 31.096 137.768 30.86 137.552 30.572C137.336 30.276 137.228 29.832 137.228 29.24V29.108C137.228 28.412 137.412 27.888 137.78 27.536C138.156 27.176 138.748 26.996 139.556 26.996ZM146.035 27.14L148.447 35H147.343L146.827 33.176H143.935L143.419 35H142.375L144.775 27.14H146.035ZM145.387 28.076L144.187 32.264H146.575L145.387 28.076ZM2.796 55.144V56.968H4.476V57.82H2.796V59.644H1.884V57.82H0.204V56.968H1.884V55.144H2.796ZM7.51978 53.788V61H6.49978V54.772H6.47578L4.87978 55.456L4.67578 54.58L6.61978 53.788H7.51978ZM13.4623 52.936C13.1503 52.96 12.9223 53 12.7783 53.056C12.6423 53.104 12.5503 53.2 12.5023 53.344C12.4543 53.48 12.4303 53.704 12.4303 54.016V60.292C12.4303 60.596 12.4503 60.82 12.4903 60.964C12.5383 61.1 12.6303 61.196 12.7663 61.252C12.9103 61.316 13.1423 61.356 13.4623 61.372V62.212C12.8783 62.212 12.4423 62.148 12.1543 62.02C11.8743 61.9 11.6783 61.688 11.5663 61.384C11.4623 61.08 11.4103 60.62 11.4103 60.004V54.304C11.4103 53.688 11.4623 53.228 11.5663 52.924C11.6783 52.62 11.8743 52.408 12.1543 52.288C12.4423 52.16 12.8783 52.096 13.4623 52.096V52.936ZM16.1197 53.644C16.8397 53.644 17.3877 53.84 17.7637 54.232C18.1397 54.624 18.3277 55.192 18.3277 55.936V58.504C18.3277 59.416 18.1237 60.084 17.7157 60.508C17.3157 60.932 16.7037 61.144 15.8797 61.144C15.6477 61.144 15.3757 61.12 15.0637 61.072C14.7597 61.032 14.5157 60.992 14.3317 60.952V60.1C14.5717 60.14 14.8517 60.184 15.1717 60.232C15.4917 60.272 15.7277 60.292 15.8797 60.292C16.3677 60.292 16.7277 60.16 16.9597 59.896C17.1917 59.624 17.3077 59.184 17.3077 58.576V57.664C16.7477 58.2 16.2037 58.468 15.6757 58.468C15.1077 58.468 14.6677 58.288 14.3557 57.928C14.0437 57.568 13.8877 57.04 13.8877 56.344V55.876C13.8877 55.156 14.0757 54.604 14.4517 54.22C14.8277 53.836 15.3837 53.644 16.1197 53.644ZM16.1197 54.508C15.3117 54.508 14.9077 54.944 14.9077 55.816V56.38C14.9077 56.772 14.9917 57.072 15.1597 57.28C15.3277 57.48 15.5677 57.58 15.8797 57.58C16.2637 57.58 16.7397 57.32 17.3077 56.8V55.876C17.3077 54.964 16.9117 54.508 16.1197 54.508ZM23.435 53.8V54.496L20.747 61H19.655L22.343 54.712V54.688H19.103V53.8H23.435ZM25.6259 53.644C26.3059 53.644 26.8259 53.808 27.1859 54.136C27.5459 54.464 27.7259 54.924 27.7259 55.516V55.636C27.7259 56.004 27.6459 56.328 27.4859 56.608C27.3339 56.88 27.1059 57.088 26.8019 57.232C27.1299 57.368 27.3899 57.588 27.5819 57.892C27.7819 58.196 27.8819 58.54 27.8819 58.924V59.044C27.8819 59.676 27.6899 60.184 27.3059 60.568C26.9299 60.952 26.3819 61.144 25.6619 61.144C25.2859 61.144 24.7699 61.092 24.1139 60.988V60.136C24.7219 60.24 25.2379 60.292 25.6619 60.292C26.0459 60.292 26.3419 60.188 26.5499 59.98C26.7579 59.764 26.8619 59.472 26.8619 59.104V58.912C26.8619 58.096 26.4419 57.688 25.6019 57.688H24.5339V56.872H25.6019C25.9779 56.872 26.2539 56.78 26.4299 56.596C26.6139 56.404 26.7059 56.1 26.7059 55.684V55.456C26.7059 54.808 26.3459 54.484 25.6259 54.484C25.2739 54.484 24.7699 54.54 24.1139 54.652V53.8C24.7699 53.696 25.2739 53.644 25.6259 53.644ZM28.298 52.012C28.882 52.012 29.314 52.076 29.594 52.204C29.882 52.324 30.078 52.536 30.182 52.84C30.294 53.144 30.35 53.604 30.35 54.22V59.92C30.35 60.536 30.294 60.996 30.182 61.3C30.078 61.604 29.882 61.816 29.594 61.936C29.314 62.064 28.882 62.128 28.298 62.128V61.288C28.618 61.272 28.846 61.232 28.982 61.168C29.126 61.112 29.218 61.016 29.258 60.88C29.306 60.736 29.33 60.512 29.33 60.208V53.932C29.33 53.62 29.306 53.396 29.258 53.26C29.21 53.116 29.114 53.02 28.97 52.972C28.834 52.916 28.61 52.876 28.298 52.852V52.012ZM36.1116 53.644C36.7516 53.644 37.2516 53.808 37.6116 54.136C37.9796 54.464 38.1636 54.932 38.1636 55.54V55.6C38.1636 55.952 38.0956 56.26 37.9596 56.524C37.8316 56.788 37.6396 56.996 37.3836 57.148C37.7276 57.308 37.9916 57.532 38.1756 57.82C38.3596 58.108 38.4516 58.456 38.4516 58.864V59.044C38.4516 59.708 38.2476 60.224 37.8396 60.592C37.4396 60.96 36.8636 61.144 36.1116 61.144C35.3596 61.144 34.7796 60.96 34.3716 60.592C33.9716 60.224 33.7716 59.708 33.7716 59.044V58.864C33.7716 58.032 34.1276 57.46 34.8396 57.148C34.5836 56.996 34.3876 56.788 34.2516 56.524C34.1236 56.26 34.0596 55.952 34.0596 55.6V55.54C34.0596 54.94 34.2396 54.476 34.5996 54.148C34.9676 53.812 35.4716 53.644 36.1116 53.644ZM36.1116 54.436C35.4076 54.436 35.0556 54.784 35.0556 55.48V55.708C35.0556 56.084 35.1356 56.356 35.2956 56.524C35.4556 56.684 35.7276 56.764 36.1116 56.764C36.4956 56.764 36.7676 56.684 36.9276 56.524C37.0876 56.356 37.1676 56.084 37.1676 55.708V55.48C37.1676 55.12 37.0796 54.856 36.9036 54.688C36.7356 54.52 36.4716 54.436 36.1116 54.436ZM36.1116 57.556C35.6956 57.556 35.3716 57.668 35.1396 57.892C34.9076 58.116 34.7916 58.432 34.7916 58.84V59.14C34.7916 59.492 34.9036 59.772 35.1276 59.98C35.3596 60.188 35.6876 60.292 36.1116 60.292C36.5356 60.292 36.8596 60.188 37.0836 59.98C37.3156 59.772 37.4316 59.492 37.4316 59.14V58.84C37.4316 58.432 37.3156 58.116 37.0836 57.892C36.8516 57.668 36.5276 57.556 36.1116 57.556ZM43.1671 54.628H40.4551V56.968C40.9111 56.6 41.4551 56.416 42.0871 56.416C42.6391 56.416 43.0511 56.58 43.3231 56.908C43.6031 57.228 43.7431 57.744 43.7431 58.456V58.888C43.7431 60.392 42.9631 61.144 41.4031 61.144C41.1231 61.144 40.8151 61.116 40.4791 61.06C40.1431 61.012 39.8471 60.952 39.5911 60.88V60.052C39.8231 60.1 40.1311 60.152 40.5151 60.208C40.8991 60.256 41.1871 60.28 41.3791 60.28C41.8191 60.28 42.1511 60.164 42.3751 59.932C42.6071 59.692 42.7231 59.344 42.7231 58.888V58.42C42.7231 57.652 42.4271 57.268 41.8351 57.268C41.5151 57.268 41.2311 57.328 40.9831 57.448C40.7431 57.568 40.4991 57.768 40.2511 58.048H39.4711V53.752H43.1671V54.628ZM48.6727 53.788V58.612H49.4047V59.452H48.6727V61H47.6767V59.452H44.4127V58.744L47.5087 53.788H48.6727ZM47.6887 54.952L45.5047 58.612H47.6887V54.952ZM52.9434 57.064V57.844H50.3034V57.064H52.9434ZM58.0148 54.628H55.3027V56.968C55.7588 56.6 56.3028 56.416 56.9348 56.416C57.4868 56.416 57.8988 56.58 58.1708 56.908C58.4508 57.228 58.5908 57.744 58.5908 58.456V58.888C58.5908 60.392 57.8108 61.144 56.2508 61.144C55.9708 61.144 55.6628 61.116 55.3268 61.06C54.9908 61.012 54.6948 60.952 54.4388 60.88V60.052C54.6708 60.1 54.9788 60.152 55.3628 60.208C55.7468 60.256 56.0348 60.28 56.2268 60.28C56.6668 60.28 56.9988 60.164 57.2228 59.932C57.4548 59.692 57.5708 59.344 57.5708 58.888V58.42C57.5708 57.652 57.2748 57.268 56.6828 57.268C56.3628 57.268 56.0788 57.328 55.8308 57.448C55.5908 57.568 55.3468 57.768 55.0988 58.048H54.3188V53.752H58.0148V54.628ZM63.3116 54.628H60.5996V56.968C61.0556 56.6 61.5996 56.416 62.2316 56.416C62.7836 56.416 63.1956 56.58 63.4676 56.908C63.7476 57.228 63.8876 57.744 63.8876 58.456V58.888C63.8876 60.392 63.1076 61.144 61.5476 61.144C61.2676 61.144 60.9596 61.116 60.6236 61.06C60.2876 61.012 59.9916 60.952 59.7356 60.88V60.052C59.9676 60.1 60.2756 60.152 60.6596 60.208C61.0436 60.256 61.3316 60.28 61.5236 60.28C61.9636 60.28 62.2956 60.164 62.5196 59.932C62.7516 59.692 62.8676 59.344 62.8676 58.888V58.42C62.8676 57.652 62.5716 57.268 61.9796 57.268C61.6596 57.268 61.3756 57.328 61.1276 57.448C60.8876 57.568 60.6436 57.768 60.3956 58.048H59.6156V53.752H63.3116V54.628ZM68.6085 54.628H65.8965V56.968C66.3525 56.6 66.8965 56.416 67.5285 56.416C68.0805 56.416 68.4925 56.58 68.7645 56.908C69.0445 57.228 69.1845 57.744 69.1845 58.456V58.888C69.1845 60.392 68.4045 61.144 66.8445 61.144C66.5645 61.144 66.2565 61.116 65.9205 61.06C65.5845 61.012 65.2885 60.952 65.0325 60.88V60.052C65.2645 60.1 65.5725 60.152 65.9565 60.208C66.3405 60.256 66.6285 60.28 66.8205 60.28C67.2605 60.28 67.5925 60.164 67.8165 59.932C68.0485 59.692 68.1645 59.344 68.1645 58.888V58.42C68.1645 57.652 67.8685 57.268 67.2765 57.268C66.9565 57.268 66.6725 57.328 66.4245 57.448C66.1845 57.568 65.9405 57.768 65.6925 58.048H64.9125V53.752H68.6085V54.628ZM73.0294 57.064V57.844H70.3894V57.064H73.0294ZM78.1007 54.628H75.3887V56.968C75.8447 56.6 76.3887 56.416 77.0207 56.416C77.5727 56.416 77.9847 56.58 78.2567 56.908C78.5367 57.228 78.6767 57.744 78.6767 58.456V58.888C78.6767 60.392 77.8967 61.144 76.3367 61.144C76.0567 61.144 75.7487 61.116 75.4127 61.06C75.0767 61.012 74.7807 60.952 74.5247 60.88V60.052C74.7567 60.1 75.0647 60.152 75.4487 60.208C75.8327 60.256 76.1207 60.28 76.3127 60.28C76.7527 60.28 77.0847 60.164 77.3087 59.932C77.5407 59.692 77.6567 59.344 77.6567 58.888V58.42C77.6567 57.652 77.3607 57.268 76.7687 57.268C76.4487 57.268 76.1647 57.328 75.9167 57.448C75.6767 57.568 75.4327 57.768 75.1847 58.048H74.4047V53.752H78.1007V54.628ZM83.6063 53.788V58.612H84.3383V59.452H83.6063V61H82.6103V59.452H79.3462V58.744L82.4423 53.788H83.6063ZM82.6223 54.952L80.4383 58.612H82.6223V54.952ZM87.5803 53.644C88.2203 53.644 88.7203 53.808 89.0803 54.136C89.4483 54.464 89.6323 54.932 89.6323 55.54V55.6C89.6323 55.952 89.5643 56.26 89.4283 56.524C89.3003 56.788 89.1083 56.996 88.8523 57.148C89.1963 57.308 89.4603 57.532 89.6443 57.82C89.8283 58.108 89.9203 58.456 89.9203 58.864V59.044C89.9203 59.708 89.7163 60.224 89.3083 60.592C88.9083 60.96 88.3323 61.144 87.5803 61.144C86.8283 61.144 86.2483 60.96 85.8403 60.592C85.4403 60.224 85.2403 59.708 85.2403 59.044V58.864C85.2403 58.032 85.5963 57.46 86.3083 57.148C86.0523 56.996 85.8563 56.788 85.7203 56.524C85.5923 56.26 85.5283 55.952 85.5283 55.6V55.54C85.5283 54.94 85.7083 54.476 86.0683 54.148C86.4363 53.812 86.9403 53.644 87.5803 53.644ZM87.5803 54.436C86.8763 54.436 86.5243 54.784 86.5243 55.48V55.708C86.5243 56.084 86.6043 56.356 86.7643 56.524C86.9243 56.684 87.1963 56.764 87.5803 56.764C87.9643 56.764 88.2363 56.684 88.3963 56.524C88.5563 56.356 88.6363 56.084 88.6363 55.708V55.48C88.6363 55.12 88.5483 54.856 88.3723 54.688C88.2043 54.52 87.9403 54.436 87.5803 54.436ZM87.5803 57.556C87.1643 57.556 86.8403 57.668 86.6083 57.892C86.3763 58.116 86.2603 58.432 86.2603 58.84V59.14C86.2603 59.492 86.3723 59.772 86.5963 59.98C86.8283 60.188 87.1563 60.292 87.5803 60.292C88.0043 60.292 88.3283 60.188 88.5523 59.98C88.7843 59.772 88.9003 59.492 88.9003 59.14V58.84C88.9003 58.432 88.7843 58.116 88.5523 57.892C88.3203 57.668 87.9963 57.556 87.5803 57.556ZM2.892 81C3.252 81 3.66 81.052 4.116 81.156L4.092 82.056C3.628 81.952 3.228 81.9 2.892 81.9C2.516 81.9 2.228 82.004 2.028 82.212C1.836 82.42 1.74 82.716 1.74 83.1V85.032C1.74 85.432 1.84 85.736 2.04 85.944C2.248 86.144 2.532 86.244 2.892 86.244C3.116 86.244 3.312 86.232 3.48 86.208C3.648 86.184 3.852 86.144 4.092 86.088L4.116 86.988C3.628 87.092 3.216 87.144 2.88 87.144C1.44 87.144 0.72 86.416 0.72 84.96V83.184C0.72 81.728 1.444 81 2.892 81ZM7.50778 81C8.21978 81 8.74778 81.192 9.09178 81.576C9.44378 81.952 9.61978 82.488 9.61978 83.184V84.96C9.61978 85.656 9.44378 86.196 9.09178 86.58C8.74778 86.956 8.21978 87.144 7.50778 87.144C6.79578 87.144 6.26378 86.956 5.91178 86.58C5.56778 86.196 5.39578 85.656 5.39578 84.96V83.184C5.39578 82.488 5.56778 81.952 5.91178 81.576C6.26378 81.192 6.79578 81 7.50778 81ZM7.50778 81.852C7.16378 81.852 6.89578 81.96 6.70378 82.176C6.51178 82.392 6.41578 82.7 6.41578 83.1V85.044C6.41578 85.444 6.51178 85.752 6.70378 85.968C6.89578 86.184 7.16378 86.292 7.50778 86.292C7.85178 86.292 8.11978 86.184 8.31178 85.968C8.50378 85.752 8.59978 85.444 8.59978 85.044V83.088C8.59978 82.688 8.50378 82.384 8.31178 82.176C8.11978 81.96 7.85178 81.852 7.50778 81.852ZM13.7319 81C14.2439 81 14.6359 81.176 14.9079 81.528C15.1879 81.872 15.3279 82.364 15.3279 83.004V87H14.3079V83.148C14.3079 82.348 14.0479 81.948 13.5279 81.948C13.2959 81.948 13.0599 82.036 12.8199 82.212C12.5799 82.388 12.3719 82.628 12.1959 82.932V87H11.1759V81.144H12.1359V82.02C12.3519 81.692 12.5919 81.44 12.8559 81.264C13.1279 81.088 13.4199 81 13.7319 81ZM18.2119 81.144H19.7719V81.984H18.2119V85.416C18.2119 85.72 18.2719 85.94 18.3919 86.076C18.5199 86.204 18.7159 86.268 18.9799 86.268C19.3159 86.268 19.6439 86.228 19.9639 86.148L19.9879 87C19.6359 87.096 19.3159 87.144 19.0279 87.144C18.3879 87.144 17.9199 87.004 17.6239 86.724C17.3359 86.436 17.1919 85.972 17.1919 85.332V81.984H16.3519V81.144H17.1919L17.3839 79.584H18.2119V81.144ZM22.8546 81C23.5426 81 24.0426 81.156 24.3546 81.468C24.6746 81.772 24.8346 82.26 24.8346 82.932V87H23.8626V86.064C23.3986 86.784 22.8746 87.144 22.2906 87.144C21.8266 87.144 21.4546 86.984 21.1746 86.664C20.9026 86.344 20.7666 85.908 20.7666 85.356V85.02C20.7666 84.54 20.9306 84.144 21.2586 83.832C21.5866 83.512 22.0266 83.352 22.5786 83.352C22.8826 83.352 23.2946 83.404 23.8146 83.508V82.848C23.8146 82.504 23.7346 82.256 23.5746 82.104C23.4226 81.952 23.1826 81.876 22.8546 81.876C22.4706 81.876 21.9306 81.936 21.2346 82.056V81.18C21.9866 81.06 22.5266 81 22.8546 81ZM22.8306 84.144C22.4946 84.144 22.2386 84.232 22.0626 84.408C21.8866 84.584 21.7986 84.832 21.7986 85.152V85.284C21.7986 85.58 21.8666 85.812 22.0026 85.98C22.1386 86.148 22.3106 86.232 22.5186 86.232C22.7346 86.232 22.9546 86.14 23.1786 85.956C23.4106 85.764 23.6226 85.496 23.8146 85.152V84.228C23.5106 84.172 23.1826 84.144 22.8306 84.144ZM28.5092 81C28.8692 81 29.2772 81.052 29.7332 81.156L29.7092 82.056C29.2452 81.952 28.8452 81.9 28.5092 81.9C28.1332 81.9 27.8452 82.004 27.6452 82.212C27.4532 82.42 27.3572 82.716 27.3572 83.1V85.032C27.3572 85.432 27.4572 85.736 27.6572 85.944C27.8652 86.144 28.1492 86.244 28.5092 86.244C28.7332 86.244 28.9292 86.232 29.0972 86.208C29.2652 86.184 29.4692 86.144 29.7092 86.088L29.7332 86.988C29.2452 87.092 28.8332 87.144 28.4972 87.144C27.0572 87.144 26.3372 86.416 26.3372 84.96V83.184C26.3372 81.728 27.0612 81 28.5092 81ZM32.4502 81.144H34.0102V81.984H32.4502V85.416C32.4502 85.72 32.5102 85.94 32.6302 86.076C32.7582 86.204 32.9542 86.268 33.2182 86.268C33.5542 86.268 33.8822 86.228 34.2022 86.148L34.2262 87C33.8742 87.096 33.5542 87.144 33.2662 87.144C32.6262 87.144 32.1582 87.004 31.8622 86.724C31.5742 86.436 31.4302 85.972 31.4302 85.332V81.984H30.5902V81.144H31.4302L31.6222 79.584H32.4502V81.144ZM39.9248 78.66C41.6048 78.66 42.8528 79.04 43.6688 79.8C44.4928 80.552 44.9048 81.68 44.9048 83.184V83.784C44.9048 84.376 44.8008 84.9 44.5928 85.356C44.3928 85.812 44.0968 86.172 43.7048 86.436C43.3208 86.692 42.8688 86.82 42.3488 86.82C41.9008 86.82 41.5488 86.724 41.2928 86.532C41.0368 86.332 40.8848 86.052 40.8368 85.692C40.5488 86.044 40.2408 86.32 39.9128 86.52C39.5928 86.72 39.2848 86.82 38.9888 86.82C38.5488 86.82 38.2088 86.688 37.9688 86.424C37.7368 86.16 37.6208 85.78 37.6208 85.284C37.6208 85.14 37.6328 84.984 37.6568 84.816L37.8728 83.16C37.9528 82.512 38.1568 82.016 38.4848 81.672C38.8208 81.32 39.2488 81.144 39.7688 81.144C40.0328 81.144 40.2968 81.208 40.5608 81.336C40.8328 81.464 41.0568 81.616 41.2328 81.792L41.2928 81.3H42.2528L41.7608 85.14C41.7448 85.404 41.7768 85.6 41.8568 85.728C41.9448 85.856 42.1128 85.92 42.3608 85.92C42.6408 85.92 42.8968 85.828 43.1288 85.644C43.3608 85.46 43.5448 85.208 43.6808 84.888C43.8168 84.56 43.8848 84.192 43.8848 83.784V83.184C43.8848 82 43.5528 81.104 42.8888 80.496C42.2248 79.88 41.2368 79.572 39.9248 79.572C38.7488 79.572 37.8328 79.916 37.1768 80.604C36.5288 81.292 36.2048 82.272 36.2048 83.544V84.744C36.2048 85.912 36.5168 86.796 37.1408 87.396C37.7648 88.004 38.6928 88.308 39.9248 88.308H41.5448V89.22H39.9248C36.7648 89.22 35.1848 87.728 35.1848 84.744V83.544C35.1848 82.048 35.5808 80.86 36.3728 79.98C37.1648 79.1 38.3488 78.66 39.9248 78.66ZM39.9248 82.056C39.6448 82.056 39.4128 82.16 39.2288 82.368C39.0448 82.568 38.9248 82.88 38.8688 83.304L38.6888 84.684C38.6728 84.78 38.6648 84.908 38.6648 85.068C38.6648 85.628 38.8768 85.908 39.3008 85.908C39.5408 85.908 39.7888 85.816 40.0448 85.632C40.3088 85.44 40.5568 85.168 40.7888 84.816L41.0528 82.644C40.9088 82.468 40.7288 82.328 40.5128 82.224C40.3048 82.112 40.1088 82.056 39.9248 82.056ZM47.4811 78.804V87H46.4611V78.804H47.4811ZM51.1484 81C51.8604 81 52.3884 81.192 52.7324 81.576C53.0844 81.952 53.2604 82.488 53.2604 83.184V84.96C53.2604 85.656 53.0844 86.196 52.7324 86.58C52.3884 86.956 51.8604 87.144 51.1484 87.144C50.4364 87.144 49.9044 86.956 49.5524 86.58C49.2084 86.196 49.0364 85.656 49.0364 84.96V83.184C49.0364 82.488 49.2084 81.952 49.5524 81.576C49.9044 81.192 50.4364 81 51.1484 81ZM51.1484 81.852C50.8044 81.852 50.5364 81.96 50.3444 82.176C50.1524 82.392 50.0564 82.7 50.0564 83.1V85.044C50.0564 85.444 50.1524 85.752 50.3444 85.968C50.5364 86.184 50.8044 86.292 51.1484 86.292C51.4924 86.292 51.7604 86.184 51.9524 85.968C52.1444 85.752 52.2404 85.444 52.2404 85.044V83.088C52.2404 82.688 52.1444 82.384 51.9524 82.176C51.7604 81.96 51.4924 81.852 51.1484 81.852ZM59.0054 81.144L57.1934 87H55.8614L54.0614 81.144H55.1414L56.5334 86.256L57.9254 81.144H59.0054ZM61.2197 81.144H62.7797V81.984H61.2197V85.416C61.2197 85.72 61.2797 85.94 61.3997 86.076C61.5277 86.204 61.7237 86.268 61.9877 86.268C62.3237 86.268 62.6517 86.228 62.9717 86.148L62.9957 87C62.6437 87.096 62.3237 87.144 62.0357 87.144C61.3957 87.144 60.9277 87.004 60.6317 86.724C60.3437 86.436 60.1997 85.972 60.1997 85.332V81.984H59.3597V81.144H60.1997L60.3917 79.584H61.2197V81.144ZM66.6304 81C66.7424 81 66.8304 81.008 66.8944 81.024V82.176C66.7744 82.152 66.6184 82.14 66.4264 82.14C65.8664 82.14 65.4224 82.42 65.0944 82.98V87H64.0744V81.144H65.0344V82.02C65.2504 81.692 65.4904 81.44 65.7544 81.264C66.0264 81.088 66.3184 81 66.6304 81ZM69.8147 81C70.4867 81 70.9987 81.184 71.3507 81.552C71.7027 81.92 71.8787 82.452 71.8787 83.148V84.384H68.7947V85.092C68.7947 85.5 68.8907 85.796 69.0827 85.98C69.2827 86.156 69.5947 86.244 70.0187 86.244C70.4347 86.244 70.9547 86.18 71.5787 86.052L71.6027 86.94C70.8587 87.076 70.3267 87.144 70.0067 87.144C69.2147 87.144 68.6427 86.972 68.2907 86.628C67.9467 86.284 67.7747 85.752 67.7747 85.032V83.148C67.7747 82.452 67.9427 81.92 68.2787 81.552C68.6227 81.184 69.1347 81 69.8147 81ZM69.8147 81.852C69.5027 81.852 69.2547 81.952 69.0707 82.152C68.8867 82.344 68.7947 82.624 68.7947 82.992V83.568H70.8587V83.028C70.8587 82.644 70.7627 82.352 70.5707 82.152C70.3867 81.952 70.1347 81.852 69.8147 81.852ZM75.0499 81C75.7379 81 76.2379 81.156 76.5499 81.468C76.8699 81.772 77.0299 82.26 77.0299 82.932V87H76.0579V86.064C75.5939 86.784 75.0699 87.144 74.4859 87.144C74.0219 87.144 73.6499 86.984 73.3699 86.664C73.0979 86.344 72.9619 85.908 72.9619 85.356V85.02C72.9619 84.54 73.1259 84.144 73.4539 83.832C73.7819 83.512 74.2219 83.352 74.7739 83.352C75.0779 83.352 75.4899 83.404 76.0099 83.508V82.848C76.0099 82.504 75.9299 82.256 75.7699 82.104C75.6179 81.952 75.3779 81.876 75.0499 81.876C74.6659 81.876 74.1259 81.936 73.4299 82.056V81.18C74.1819 81.06 74.7219 81 75.0499 81ZM75.0259 84.144C74.6899 84.144 74.4339 84.232 74.2579 84.408C74.0819 84.584 73.9939 84.832 73.9939 85.152V85.284C73.9939 85.58 74.0619 85.812 74.1979 85.98C74.3339 86.148 74.5059 86.232 74.7139 86.232C74.9299 86.232 75.1499 86.14 75.3739 85.956C75.6059 85.764 75.8179 85.496 76.0099 85.152V84.228C75.7059 84.172 75.3779 84.144 75.0259 84.144ZM79.6725 78.804V87H78.6525V78.804H79.6725ZM83.0278 81C83.3638 81 83.7678 81.048 84.2398 81.144L84.2158 82.008C83.7998 81.912 83.4198 81.864 83.0758 81.864C82.3558 81.864 81.9958 82.096 81.9958 82.56V82.668C81.9958 82.812 82.0318 82.928 82.1038 83.016C82.1838 83.104 82.3238 83.196 82.5238 83.292L83.6518 83.82C84.3318 84.14 84.6718 84.608 84.6718 85.224V85.488C84.6638 86.04 84.4958 86.456 84.1678 86.736C83.8478 87.008 83.3398 87.144 82.6438 87.144C82.2838 87.144 81.7678 87.06 81.0958 86.892L81.1438 85.98C81.7438 86.156 82.2358 86.244 82.6198 86.244C83.0118 86.244 83.2838 86.192 83.4358 86.088C83.5878 85.976 83.6638 85.796 83.6638 85.548V85.428C83.6638 85.236 83.6238 85.084 83.5438 84.972C83.4718 84.86 83.3478 84.764 83.1718 84.684L82.0078 84.168C81.6558 84.008 81.3958 83.816 81.2278 83.592C81.0678 83.368 80.9878 83.108 80.9878 82.812V82.644C81.0038 82.1 81.1718 81.692 81.4918 81.42C81.8198 81.14 82.3318 81 83.0278 81ZM87.1298 81.144H88.6898V81.984H87.1298V85.416C87.1298 85.72 87.1898 85.94 87.3098 86.076C87.4378 86.204 87.6338 86.268 87.8978 86.268C88.2338 86.268 88.5618 86.228 88.8818 86.148L88.9058 87C88.5538 87.096 88.2338 87.144 87.9458 87.144C87.3058 87.144 86.8378 87.004 86.5418 86.724C86.2538 86.436 86.1098 85.972 86.1098 85.332V81.984H85.2698V81.144H86.1098L86.3018 79.584H87.1298V81.144ZM91.7725 81C92.4605 81 92.9605 81.156 93.2725 81.468C93.5925 81.772 93.7525 82.26 93.7525 82.932V87H92.7805V86.064C92.3165 86.784 91.7925 87.144 91.2085 87.144C90.7445 87.144 90.3725 86.984 90.0925 86.664C89.8205 86.344 89.6845 85.908 89.6845 85.356V85.02C89.6845 84.54 89.8485 84.144 90.1765 83.832C90.5045 83.512 90.9445 83.352 91.4965 83.352C91.8005 83.352 92.2125 83.404 92.7325 83.508V82.848C92.7325 82.504 92.6525 82.256 92.4925 82.104C92.3405 81.952 92.1005 81.876 91.7725 81.876C91.3885 81.876 90.8485 81.936 90.1525 82.056V81.18C90.9045 81.06 91.4445 81 91.7725 81ZM91.7485 84.144C91.4125 84.144 91.1565 84.232 90.9805 84.408C90.8045 84.584 90.7165 84.832 90.7165 85.152V85.284C90.7165 85.58 90.7845 85.812 90.9205 85.98C91.0565 86.148 91.2285 86.232 91.4365 86.232C91.6525 86.232 91.8725 86.14 92.0965 85.956C92.3285 85.764 92.5405 85.496 92.7325 85.152V84.228C92.4285 84.172 92.1005 84.144 91.7485 84.144ZM96.5752 81.144H98.1352V81.984H96.5752V85.416C96.5752 85.72 96.6352 85.94 96.7552 86.076C96.8832 86.204 97.0792 86.268 97.3432 86.268C97.6792 86.268 98.0072 86.228 98.3272 86.148L98.3512 87C97.9992 87.096 97.6792 87.144 97.3912 87.144C96.7512 87.144 96.2832 87.004 95.9872 86.724C95.6992 86.436 95.5552 85.972 95.5552 85.332V81.984H94.7152V81.144H95.5552L95.7472 79.584H96.5752V81.144ZM101.35 81C102.022 81 102.534 81.184 102.886 81.552C103.238 81.92 103.414 82.452 103.414 83.148V84.384H100.33V85.092C100.33 85.5 100.426 85.796 100.618 85.98C100.818 86.156 101.13 86.244 101.554 86.244C101.97 86.244 102.49 86.18 103.114 86.052L103.138 86.94C102.394 87.076 101.862 87.144 101.542 87.144C100.75 87.144 100.178 86.972 99.8258 86.628C99.4818 86.284 99.3098 85.752 99.3098 85.032V83.148C99.3098 82.452 99.4778 81.92 99.8138 81.552C100.158 81.184 100.67 81 101.35 81ZM101.35 81.852C101.038 81.852 100.79 81.952 100.606 82.152C100.422 82.344 100.33 82.624 100.33 82.992V83.568H102.394V83.028C102.394 82.644 102.298 82.352 102.106 82.152C101.922 81.952 101.67 81.852 101.35 81.852ZM105.289 85.68C105.745 85.68 105.973 85.868 105.973 86.244V86.592C105.973 86.768 105.913 86.904 105.793 87C105.681 87.096 105.513 87.144 105.289 87.144C105.073 87.144 104.905 87.096 104.785 87C104.673 86.904 104.617 86.768 104.617 86.592V86.244C104.617 86.06 104.673 85.92 104.785 85.824C104.905 85.728 105.073 85.68 105.289 85.68ZM109.462 81C109.822 81 110.23 81.052 110.686 81.156L110.662 82.056C110.198 81.952 109.798 81.9 109.462 81.9C109.086 81.9 108.798 82.004 108.598 82.212C108.406 82.42 108.31 82.716 108.31 83.1V85.032C108.31 85.432 108.41 85.736 108.61 85.944C108.818 86.144 109.102 86.244 109.462 86.244C109.686 86.244 109.882 86.232 110.05 86.208C110.218 86.184 110.422 86.144 110.662 86.088L110.686 86.988C110.198 87.092 109.786 87.144 109.45 87.144C108.01 87.144 107.29 86.416 107.29 84.96V83.184C107.29 81.728 108.014 81 109.462 81ZM114.078 81C114.79 81 115.318 81.192 115.662 81.576C116.014 81.952 116.19 82.488 116.19 83.184V84.96C116.19 85.656 116.014 86.196 115.662 86.58C115.318 86.956 114.79 87.144 114.078 87.144C113.366 87.144 112.834 86.956 112.482 86.58C112.138 86.196 111.966 85.656 111.966 84.96V83.184C111.966 82.488 112.138 81.952 112.482 81.576C112.834 81.192 113.366 81 114.078 81ZM114.078 81.852C113.734 81.852 113.466 81.96 113.274 82.176C113.082 82.392 112.986 82.7 112.986 83.1V85.044C112.986 85.444 113.082 85.752 113.274 85.968C113.466 86.184 113.734 86.292 114.078 86.292C114.422 86.292 114.69 86.184 114.882 85.968C115.074 85.752 115.17 85.444 115.17 85.044V83.088C115.17 82.688 115.074 82.384 114.882 82.176C114.69 81.96 114.422 81.852 114.078 81.852ZM123.374 81C123.886 81 124.278 81.176 124.55 81.528C124.822 81.872 124.958 82.364 124.958 83.004V87H123.938V83.148C123.938 82.348 123.682 81.948 123.17 81.948C122.946 81.948 122.714 82.036 122.474 82.212C122.242 82.388 122.038 82.628 121.862 82.932V87H120.842V83.148C120.842 82.348 120.586 81.948 120.074 81.948C119.85 81.948 119.618 82.036 119.378 82.212C119.146 82.388 118.942 82.628 118.766 82.932V87H117.746V81.144H118.706V82.02C118.914 81.692 119.154 81.44 119.426 81.264C119.698 81.088 119.982 81 120.278 81C120.646 81 120.954 81.096 121.202 81.288C121.45 81.472 121.63 81.744 121.742 82.104C121.958 81.744 122.206 81.472 122.486 81.288C122.766 81.096 123.062 81 123.374 81Z" fill="white"/>
</svg>
