<svg width="95" height="10" viewBox="0 0 95 10" fill="none" xmlns="http://www.w3.org/2000/svg">
<path d="M3.456 0.995999C4.352 0.995999 5.012 1.22 5.436 1.668C5.86 2.116 6.072 2.752 6.072 3.576V6.564C6.072 7.388 5.86 8.024 5.436 8.472C5.012 8.92 4.352 9.144 3.456 9.144C2.56 9.144 1.9 8.92 1.476 8.472C1.052 8.024 0.84 7.388 0.84 6.564V3.576C0.84 2.752 1.052 2.116 1.476 1.668C1.9 1.22 2.56 0.995999 3.456 0.995999ZM3.456 1.896C2.928 1.896 2.528 2.028 2.256 2.292C1.992 2.556 1.86 2.944 1.86 3.456V6.672C1.86 7.184 1.992 7.576 2.256 7.848C2.528 8.112 2.928 8.244 3.456 8.244C3.984 8.244 4.38 8.112 4.644 7.848C4.916 7.576 5.052 7.184 5.052 6.672V3.468C5.052 2.956 4.916 2.568 4.644 2.304C4.38 2.032 3.984 1.896 3.456 1.896ZM12.9261 6.516C12.9261 7.364 12.7101 8.016 12.2781 8.472C11.8461 8.92 11.2101 9.144 10.3701 9.144C9.53806 9.144 8.90206 8.924 8.46206 8.484C8.03006 8.044 7.81406 7.396 7.81406 6.54V1.14H8.83406V6.672C8.83406 7.184 8.96606 7.576 9.23006 7.848C9.50206 8.112 9.88206 8.244 10.3701 8.244C10.8661 8.244 11.2461 8.112 11.5101 7.848C11.7741 7.576 11.9061 7.184 11.9061 6.672V1.14H12.9261V6.516ZM16.8161 0.995999C17.7601 0.995999 18.4561 1.18 18.9041 1.548C19.3521 1.916 19.5761 2.432 19.5761 3.096V3.396C19.5761 3.86 19.4481 4.272 19.1921 4.632C18.9361 4.984 18.5681 5.232 18.0881 5.376L20.1281 9H18.9881L17.0801 5.592C17.0161 5.6 16.8881 5.604 16.6961 5.604C16.3761 5.604 16.0601 5.592 15.7481 5.568V9H14.7281V1.044C15.6241 1.012 16.3201 0.995999 16.8161 0.995999ZM16.7921 1.86C16.5281 1.86 16.1801 1.868 15.7481 1.884V4.716C16.1801 4.756 16.5401 4.776 16.8281 4.776C17.9801 4.776 18.5561 4.308 18.5561 3.372V3.132C18.5561 2.7 18.4161 2.38 18.1361 2.172C17.8561 1.964 17.4081 1.86 16.7921 1.86ZM25.3328 0.995999C25.7648 0.995999 26.3288 1.06 27.0248 1.188L27.0008 2.088C26.3448 1.96 25.7888 1.896 25.3328 1.896C24.8688 1.896 24.5328 1.988 24.3248 2.172C24.1248 2.356 24.0248 2.636 24.0248 3.012V3.324C24.0248 3.524 24.0488 3.684 24.0968 3.804C24.1528 3.916 24.2488 4.016 24.3848 4.104C24.5208 4.184 24.7248 4.268 24.9968 4.356L26.1128 4.728C26.6488 4.912 27.0248 5.156 27.2408 5.46C27.4648 5.764 27.5768 6.208 27.5768 6.792V7.02C27.5768 7.732 27.3688 8.264 26.9528 8.616C26.5448 8.968 25.8728 9.144 24.9368 9.144C24.4808 9.144 23.8968 9.064 23.1848 8.904L23.2088 7.98C23.8728 8.14 24.4408 8.22 24.9128 8.22C25.5128 8.22 25.9368 8.132 26.1848 7.956C26.4328 7.772 26.5568 7.488 26.5568 7.104V6.708C26.5568 6.428 26.4928 6.216 26.3648 6.072C26.2448 5.92 26.0288 5.792 25.7168 5.688L24.4808 5.28C23.9288 5.096 23.5448 4.86 23.3288 4.572C23.1128 4.276 23.0048 3.832 23.0048 3.24V3.108C23.0048 2.412 23.1888 1.888 23.5568 1.536C23.9328 1.176 24.5248 0.995999 25.3328 0.995999ZM31.3935 0.995999C32.2895 0.995999 32.9495 1.22 33.3735 1.668C33.7975 2.116 34.0095 2.752 34.0095 3.576V6.564C34.0095 7.388 33.7975 8.024 33.3735 8.472C32.9495 8.92 32.2895 9.144 31.3935 9.144C30.4975 9.144 29.8375 8.92 29.4135 8.472C28.9895 8.024 28.7775 7.388 28.7775 6.564V3.576C28.7775 2.752 28.9895 2.116 29.4135 1.668C29.8375 1.22 30.4975 0.995999 31.3935 0.995999ZM31.3935 1.896C30.8655 1.896 30.4655 2.028 30.1935 2.292C29.9295 2.556 29.7975 2.944 29.7975 3.456V6.672C29.7975 7.184 29.9295 7.576 30.1935 7.848C30.4655 8.112 30.8655 8.244 31.3935 8.244C31.9215 8.244 32.3175 8.112 32.5815 7.848C32.8535 7.576 32.9895 7.184 32.9895 6.672V3.468C32.9895 2.956 32.8535 2.568 32.5815 2.304C32.3175 2.032 31.9215 1.896 31.3935 1.896ZM38.2476 0.995999C38.5596 0.995999 38.8956 1.028 39.2556 1.092C39.6236 1.148 39.8396 1.18 39.9036 1.188L39.8796 2.088C39.1756 1.96 38.6316 1.896 38.2476 1.896C37.7036 1.896 37.3116 2.008 37.0716 2.232C36.8316 2.456 36.7116 2.828 36.7116 3.348V6.78C36.7116 7.3 36.8276 7.672 37.0596 7.896C37.2996 8.112 37.6956 8.22 38.2476 8.22C38.6316 8.22 39.1756 8.156 39.8796 8.028L39.9036 8.952C39.8396 8.96 39.6236 8.992 39.2556 9.048C38.8956 9.112 38.5596 9.144 38.2476 9.144C37.3276 9.144 36.6716 8.948 36.2796 8.556C35.8876 8.164 35.6916 7.552 35.6916 6.72V3.42C35.6916 2.588 35.8876 1.976 36.2796 1.584C36.6716 1.192 37.3276 0.995999 38.2476 0.995999ZM42.4786 1.14V9H41.4586V1.14H42.4786ZM47.1988 1.14L49.6108 9H48.5068L47.9908 7.176H45.0988L44.5828 9H43.5388L45.9388 1.14H47.1988ZM46.5508 2.076L45.3508 6.264H47.7388L46.5508 2.076ZM51.6895 1.14V8.1H54.8095V9H50.6695V1.14H51.6895ZM63.8801 9L63.8201 2.544L62.1521 8.184H60.8921L59.2241 2.544L59.1641 9H58.1681L58.2401 1.14H59.7521L61.5281 7.272L63.2921 1.14H64.8041L64.8761 9H63.8801ZM70.7588 1.14V2.064H67.6388V4.548H70.5188V5.46H67.6388V8.076H70.7588V9H66.6188V1.14H70.7588ZM74.639 0.995999C75.591 0.995999 76.323 1.268 76.835 1.812C77.355 2.348 77.615 3.124 77.615 4.14V6.108C77.615 7.084 77.355 7.836 76.835 8.364C76.323 8.884 75.571 9.144 74.579 9.144C73.899 9.144 73.187 9.12 72.443 9.072V1.044C73.163 1.012 73.895 0.995999 74.639 0.995999ZM74.579 1.86C74.331 1.86 73.959 1.868 73.463 1.884V8.196C73.935 8.244 74.307 8.268 74.579 8.268C75.195 8.268 75.683 8.092 76.043 7.74C76.411 7.38 76.595 6.864 76.595 6.192V4.068C76.595 3.34 76.419 2.792 76.067 2.424C75.715 2.048 75.219 1.86 74.579 1.86ZM80.3184 1.14V9H79.2984V1.14H80.3184ZM85.0387 1.14L87.4507 9H86.3467L85.8307 7.176H82.9387L82.4227 9H81.3787L83.7787 1.14H85.0387ZM84.3907 2.076L83.1907 6.264H85.5787L84.3907 2.076ZM90.1727 0.995999C90.6047 0.995999 91.1687 1.06 91.8647 1.188L91.8407 2.088C91.1847 1.96 90.6287 1.896 90.1727 1.896C89.7087 1.896 89.3727 1.988 89.1647 2.172C88.9647 2.356 88.8647 2.636 88.8647 3.012V3.324C88.8647 3.524 88.8887 3.684 88.9367 3.804C88.9927 3.916 89.0887 4.016 89.2247 4.104C89.3607 4.184 89.5647 4.268 89.8367 4.356L90.9527 4.728C91.4887 4.912 91.8647 5.156 92.0807 5.46C92.3047 5.764 92.4167 6.208 92.4167 6.792V7.02C92.4167 7.732 92.2087 8.264 91.7927 8.616C91.3847 8.968 90.7127 9.144 89.7767 9.144C89.3207 9.144 88.7367 9.064 88.0247 8.904L88.0487 7.98C88.7127 8.14 89.2807 8.22 89.7527 8.22C90.3527 8.22 90.7767 8.132 91.0247 7.956C91.2727 7.772 91.3967 7.488 91.3967 7.104V6.708C91.3967 6.428 91.3327 6.216 91.2047 6.072C91.0847 5.92 90.8687 5.792 90.5567 5.688L89.3207 5.28C88.7687 5.096 88.3847 4.86 88.1687 4.572C87.9527 4.276 87.8447 3.832 87.8447 3.24V3.108C87.8447 2.412 88.0287 1.888 88.3967 1.536C88.7727 1.176 89.3647 0.995999 90.1727 0.995999ZM94.1679 7.68C94.6239 7.68 94.8519 7.868 94.8519 8.244V8.592C94.8519 8.768 94.7919 8.904 94.6719 9C94.5599 9.096 94.3919 9.144 94.1679 9.144C93.9519 9.144 93.7839 9.096 93.6639 9C93.5519 8.904 93.4959 8.768 93.4959 8.592V8.244C93.4959 8.06 93.5519 7.92 93.6639 7.824C93.7839 7.728 93.9519 7.68 94.1679 7.68ZM94.1679 3.264C94.6239 3.264 94.8519 3.452 94.8519 3.828V4.176C94.8519 4.352 94.7919 4.488 94.6719 4.584C94.5599 4.68 94.3919 4.728 94.1679 4.728C93.9519 4.728 93.7839 4.68 93.6639 4.584C93.5519 4.488 93.4959 4.352 93.4959 4.176V3.828C93.4959 3.644 93.5519 3.504 93.6639 3.408C93.7839 3.312 93.9519 3.264 94.1679 3.264Z" fill="white"/>
</svg>
